<svg width="300" height="300" viewBox="0 0 300 300" fill="none" xmlns="http://www.w3.org/2000/svg">
<g clip-path="url(#clip0_201_38)">
<rect width="300" height="300" fill="#FFFCFC"/>
<path d="M311.708 285.553C293.716 296.791 274.676 306.367 254.532 308.107C234.43 309.812 212.984 302.757 198.389 284.649C180.961 263.017 174.774 228.242 154.303 211.561C141.05 200.771 124.626 199.931 109.117 198.016C93.5695 196.094 76.7884 191.857 66.4067 176.779C47.7979 149.741 59.0677 102.042 38.5333 77.352C24.9733 61.0792 4.1595 62.8091 -13.8711 57.4353C-36.6775 50.6178 -56.9734 30.3034 -67.6383 3.58608C-78.3032 -23.1312 -79.1035 -55.7217 -69.8166 -82.7775" stroke="#FDCFA5" stroke-miterlimit="10"/>
<path d="M309.28 289.541C291.392 300.603 272.388 309.854 252.394 311.322C240.332 312.233 227.777 309.976 216.538 304.101C209.196 300.274 202.416 294.859 196.674 287.824C179.273 266.42 172.682 232.241 152.76 215.207C145.677 209.159 137.779 205.871 129.466 203.809C122.43 202.061 115.127 201.175 107.954 200.142C97.8948 198.718 87.2282 196.509 78.1084 191.257C73.0583 188.352 68.4757 184.538 64.7056 179.452C57.2679 169.477 54.0871 156.592 51.7864 143.061C48.4281 123.572 46.8018 102.654 37.2358 87.2827C36.2258 85.6248 35.0891 84.0715 33.8714 82.5449C20.4591 65.9671 0.612403 66.5912 -16.293 60.5697C-32.8495 54.622 -47.7524 40.8812 -58.4008 22.3043C-61.4771 16.9269 -64.1662 11.1498 -66.475 5.05897C-70.5979 -5.92378 -73.3054 -17.8333 -74.5822 -29.8785C-76.5289 -47.7997 -75.3395 -65.978 -70.7784 -81.9558" stroke="#FDCFA5" stroke-miterlimit="10"/>
<path d="M306.894 293.601C289.073 304.433 270.144 313.366 250.255 314.64C238.248 315.432 225.821 313.111 214.666 307.243C207.366 303.418 200.621 298.088 194.878 291.085C177.501 269.956 170.588 236.35 151.172 218.999C144.183 212.785 136.517 209.102 128.314 206.709C121.345 204.665 114.024 203.554 106.822 202.426C96.7041 200.812 85.9651 198.584 76.7126 193.557C71.6158 190.768 66.9794 187.156 63.0389 182.244C55.3696 172.729 51.7054 160.464 48.9279 147.467C44.8754 128.762 42.3425 108.317 32.6403 92.7141C31.5921 91.0453 30.4982 89.4544 29.2811 87.9253C15.974 71.0776 -2.8292 70.608 -18.6037 63.8506C-34.0364 57.2532 -47.6853 43.1836 -57.5571 24.2999C-60.4275 18.8251 -62.9884 12.9334 -65.1693 6.72743C-69.1175 -4.45689 -71.8481 -16.5676 -73.3495 -28.7692C-75.5943 -46.9164 -75.1904 -65.1612 -71.6345 -80.9412" stroke="#FDCFA5" stroke-miterlimit="10"/>
<path d="M304.512 297.615C286.794 308.267 267.9 316.87 248.118 317.905C236.207 318.544 223.906 316.201 212.833 310.341C205.614 306.528 198.907 301.242 193.16 294.314C175.77 273.413 168.495 240.38 149.581 222.758C142.729 216.343 135.253 212.299 127.116 209.609C120.212 207.268 112.908 205.984 105.647 204.665C95.4692 202.86 84.6186 200.605 75.272 195.814C70.0895 193.135 65.3639 189.674 61.3234 185.041C53.3836 175.98 49.3102 164.4 46.0209 151.889C41.2392 133.922 37.7932 114.042 27.9968 98.1756C26.9491 96.5042 25.8592 94.8678 24.6462 93.2932C11.447 76.1346 -6.35307 74.5593 -20.9666 67.1589C-35.3159 59.9023 -47.635 45.5215 -56.8052 26.2738C-59.4701 20.7022 -61.861 14.6616 -63.9563 8.37616C-67.7267 -3.05153 -70.4841 -15.3187 -72.1712 -27.6666C-74.7528 -46.0454 -75.095 -64.3451 -72.5467 -79.8802" stroke="#FFC087" stroke-miterlimit="10"/>
<path d="M302.129 301.644C284.477 312.061 265.656 320.339 246.015 321.186C234.197 321.713 221.985 319.298 210.993 313.448C203.816 309.638 197.147 304.397 191.431 297.599C174.027 276.929 166.429 244.486 148.019 226.55C141.261 219.971 134.012 215.574 125.988 212.508C119.146 209.913 111.827 208.36 104.501 206.894C94.264 204.898 83.3366 202.668 73.8214 198.054C68.5884 195.537 63.7768 192.185 59.5976 187.824C51.387 179.22 46.9114 168.243 43.1 156.351C37.6248 139.18 33.2732 119.785 23.3012 103.683C22.2574 101.966 21.1292 100.319 19.9554 98.7509C6.89869 81.335 -9.9385 78.6425 -23.4278 70.5468C-36.6565 62.6384 -47.6863 47.9395 -56.1173 28.3383C-58.5735 22.6274 -60.8014 16.5251 -62.808 10.1179C-66.4044 -1.50858 -69.1818 -14.0168 -71.0968 -26.4741C-74.015 -45.0816 -75.064 -63.4246 -73.5579 -78.7625" stroke="#F29137" stroke-miterlimit="10"/>
<path d="M299.751 305.731C282.16 315.954 263.413 323.905 243.876 324.511C232.15 324.927 220.069 322.405 209.116 316.599C201.98 312.794 195.349 307.598 189.667 300.887C172.287 280.462 164.289 248.599 146.416 230.403C139.755 223.616 132.734 218.866 124.775 215.502C117.999 212.609 110.662 210.83 103.306 209.268C93.0479 207.089 81.9695 204.824 72.3594 200.449C67.0404 198.042 62.1745 194.895 57.8985 190.772C49.417 182.629 44.4972 172.293 40.2095 160.946C34.0443 144.532 28.7453 125.66 18.6748 109.342C17.5927 107.615 16.5071 105.931 15.3372 104.317C2.38363 86.6379 -13.4499 82.7903 -25.7811 74.05C-37.9257 65.4375 -47.6323 50.4734 -55.3671 30.5558C-57.6184 24.7494 -59.6767 18.4995 -61.5981 12.0145C-65.0208 0.190639 -67.8218 -12.514 -69.9259 -25.0706C-73.1454 -43.853 -74.9749 -62.296 -74.4713 -77.4252" stroke="#F29137" stroke-miterlimit="10"/>
<path d="M297.361 309.765C279.871 319.802 261.162 327.374 241.727 327.782C230.093 328.086 218.1 325.491 207.268 319.704C200.212 315.911 193.619 310.761 187.931 304.128C170.538 283.939 162.217 252.672 144.843 234.207C138.279 227.211 131.486 222.107 123.593 218.444C116.879 215.297 109.564 213.256 102.145 211.546C91.8264 209.175 80.6747 206.892 70.9347 202.704C65.5686 200.416 60.6132 197.422 56.1985 193.573C47.4851 185.9 42.0826 176.198 37.319 165.396C30.4223 149.776 24.2575 131.402 14.0501 114.858C12.9684 113.128 11.8446 111.434 10.6786 109.776C-2.16824 91.7879 -17.0019 86.8254 -28.2108 77.387C-39.2366 68.1198 -47.6912 52.7858 -54.6528 32.5666C-56.6993 26.6641 -58.6302 20.3012 -60.4242 13.7028C-63.6698 1.63709 -66.4978 -11.2216 -68.8261 -23.93C-72.3819 -42.9398 -74.9559 -61.4322 -75.4543 -76.3528" stroke="#F29137" stroke-miterlimit="10"/>
<path d="M294.933 313.852C277.509 323.651 258.872 330.896 239.578 331.113C228.039 331.261 216.171 328.645 205.381 322.86C198.367 319.071 191.811 313.966 186.154 307.464C168.782 287.562 160.107 256.798 143.271 238.07C136.805 230.866 130.235 225.449 122.453 221.408C115.805 217.961 108.468 215.737 101.023 213.887C90.6456 211.324 79.3785 209.057 69.5475 205.065C64.0957 202.889 59.0475 200.092 54.5398 196.439C45.5562 189.228 39.7453 180.221 34.471 169.915C26.8854 155.055 19.8134 137.214 9.4307 120.435C8.35295 118.66 7.22956 116.964 6.06403 115.303C-6.6794 97.0491 -20.5101 90.9252 -30.5622 80.838C-40.5051 70.8624 -47.638 55.2603 -53.9008 34.6782C-55.7391 28.6358 -57.5075 22.2109 -59.2094 15.4471C-62.2814 3.18202 -65.0906 -9.91002 -67.6464 -22.7274C-71.4995 -41.9575 -74.8526 -60.5514 -76.3557 -75.2196" stroke="#F29137" stroke-miterlimit="10"/>
<path d="M292.552 317.895C275.19 327.497 256.626 334.413 237.436 334.388C225.95 334.415 214.209 331.735 203.539 325.968C196.563 322.226 190.087 317.133 184.386 310.702C167 291.039 158.006 260.834 141.664 241.88C135.291 234.51 128.913 228.687 121.236 224.354C114.649 220.651 107.298 218.155 99.7882 216.157C89.3505 213.401 78.01 211.116 68.007 207.348C62.508 205.292 57.3704 202.649 52.724 199.272C43.4699 192.525 37.2156 184.164 31.466 174.408C23.1496 160.347 15.1742 143.001 4.69326 126.003C3.61592 124.227 2.49642 122.485 1.33479 120.779C-11.2636 102.225 -24.1699 94.9212 -33.031 84.2364C-41.9307 73.5433 -47.7044 57.6823 -53.2725 36.7821C-54.9063 30.6437 -56.5054 24.0706 -58.1223 17.2285C-61.021 4.76502 -63.8538 -8.52421 -66.6335 -21.4927C-70.8224 -40.9496 -74.919 -59.5913 -77.4227 -74.0479" stroke="#F29137" stroke-miterlimit="10"/>
<path d="M290.165 321.948C272.907 331.319 254.339 337.888 235.29 337.672C223.896 337.586 212.243 334.833 201.655 329.076C194.758 325.347 188.278 320.335 182.615 313.948C165.215 294.523 155.899 264.919 140.059 245.65C133.783 238.07 127.632 231.889 120.024 227.212C113.503 223.209 106.172 220.493 98.5983 218.345C88.1011 215.396 76.6876 213.093 66.5516 209.557C60.967 207.613 55.7367 205.169 51.0327 202.04C41.5087 195.759 34.8115 188.045 28.587 178.839C19.5827 165.543 10.7013 148.733 0.0839737 131.508C-1.03158 129.721 -2.14713 127.934 -3.26962 126.234C-15.7647 107.413 -27.666 98.8984 -35.4139 87.5968C-43.2288 76.1481 -47.6827 60.0177 -52.5178 38.805C-53.9471 32.5697 -55.4191 25.8826 -56.9088 18.9263C-59.6342 6.26274 -62.4903 -7.22535 -65.455 -20.3383C-69.9794 -40.0242 -74.8189 -58.7153 -78.3223 -72.9611" stroke="#F29137" stroke-miterlimit="10"/>
<path d="M287.785 326.041C270.588 335.215 252.093 341.453 233.187 341.002C221.889 340.758 210.363 337.941 199.814 332.23C192.958 328.506 186.515 323.54 180.883 317.285C163.506 298.109 153.872 269.067 138.487 249.563C132.347 241.782 126.384 235.235 118.88 230.265C112.424 225.961 105.071 223.06 97.4717 220.771C86.9147 217.629 75.3893 215.299 65.1588 212.005C59.5271 210.181 54.204 207.936 49.365 205.041C39.571 199.226 32.4694 192.17 25.7316 183.508C15.9975 171.016 6.21401 154.703 -4.54348 137.295C-5.65515 135.463 -6.77029 133.674 -7.92753 131.92C-20.3164 112.79 -31.2557 103.098 -37.8108 91.1519C-44.5452 78.9905 -47.6804 62.5916 -51.8184 41.0161C-53.04 34.6407 -54.3463 27.8485 -55.7512 20.8136C-58.3 7.90736 -61.1796 -5.77849 -64.3714 -18.9994C-69.1925 -38.9043 -74.8132 -57.6509 -79.3158 -71.6836" stroke="#FDCFA5" stroke-miterlimit="10"/>
<path d="M285.403 330.096C268.273 339.029 249.85 344.935 231.046 344.283C219.839 343.926 208.402 341.035 197.972 335.344C191.158 331.623 184.791 326.712 179.154 320.538C161.764 301.601 151.815 273.078 136.92 253.389C130.877 245.398 125.141 238.492 117.707 233.175C111.312 228.613 103.944 225.44 96.3194 223.01C85.7416 219.682 74.1011 217.369 63.7412 214.265C58.024 212.554 52.6504 210.473 47.6731 207.855C37.6094 202.508 30.0654 196.103 22.8533 187.995C12.3937 176.263 1.74051 160.543 -9.14981 142.864C-10.261 141.029 -11.4143 139.23 -12.529 137.439C-24.8148 118.042 -34.7471 107.089 -40.1941 94.5676C-45.8031 81.612 -47.6626 64.9782 -51.0721 43.1332C-52.0895 36.6607 -53.2303 29.7626 -54.5469 22.605C-56.9226 9.49837 -59.8256 -4.3865 -63.2021 -17.7516C-68.3582 -37.8854 -74.7207 -56.6804 -80.2217 -70.5001" stroke="#FDCFA5" stroke-miterlimit="10"/>
<path d="M283.017 334.204C265.987 342.947 247.598 348.512 228.899 347.615C217.784 347.144 206.473 344.188 196.086 338.499C189.313 334.783 182.984 329.919 177.381 323.833C160.012 305.191 149.709 277.18 135.311 257.22C129.365 249.018 123.855 241.753 116.487 236.133C110.158 231.269 102.809 227.874 95.0785 225.33C84.4412 221.808 72.6891 219.468 62.1963 216.599C56.3935 215 50.9274 213.119 45.8538 210.744C35.4819 205.858 27.5343 200.114 19.8482 192.561C8.65982 181.637 -2.89416 166.416 -13.8822 148.518C-15.0316 146.673 -16.1424 144.836 -17.2531 143C-29.3975 123.344 -38.3234 111.128 -42.6633 98.03C-47.1898 84.3142 -47.7359 67.4539 -50.4491 45.2441C-51.2591 38.6309 -52.2731 31.6187 -53.4663 24.3904C-55.669 11.0836 -58.5955 -3.00009 -62.1952 -16.5174C-67.6862 -36.8795 -74.7901 -55.7218 -81.2888 -69.3272" stroke="#FDCFA5" stroke-miterlimit="10"/>
<path d="M280.599 338.265C263.634 346.766 245.319 351.998 226.759 350.908C215.739 350.278 204.514 347.293 194.247 341.623C187.553 337.92 181.262 333.102 175.65 327.141C158.267 308.739 147.685 281.303 133.742 261.105C127.896 252.648 122.606 245.11 115.349 239.107C109.085 233.94 101.718 230.315 93.9625 227.629C83.266 223.912 71.441 221.554 60.8156 218.919C54.966 217.442 49.4109 215.717 44.2413 213.586C33.5967 209.213 25.2108 204.08 17.0511 197.083C5.17675 186.933 -7.28069 172.256 -18.4433 154.121C-19.5888 152.231 -20.6991 150.392 -21.8094 148.553C-33.8474 128.585 -41.771 115.147 -44.9658 101.478C-48.3684 86.9644 -47.6406 69.868 -49.6615 47.3354C-50.2677 40.6246 -51.1164 33.506 -52.2213 26.1546C-54.2478 12.6028 -57.1975 -1.68058 -60.9886 -15.2551C-66.7755 -35.8385 -74.6586 -54.7371 -82.1577 -68.0841" stroke="#FFD3BD" stroke-miterlimit="10"/>
<path d="M278.218 342.333C261.315 350.634 243.076 355.488 224.618 354.196C213.651 353.444 202.555 350.349 192.366 344.734C185.713 341.035 179.459 336.265 173.843 330.385C156.484 312.235 145.588 285.323 132.096 264.931C126.385 256.271 121.282 248.364 114.091 242.057C107.889 236.63 100.503 232.774 92.7258 229.902C81.9699 225.991 70.03 223.65 59.314 221.215C53.379 219.852 47.7313 218.328 42.4657 216.441C31.5519 212.54 22.7243 208.062 14.0878 201.667C1.48569 192.329 -11.8327 178.162 -23.1314 159.8C-24.2765 157.907 -25.4215 156.014 -26.4893 154.138C-38.4245 133.903 -45.3046 119.204 -47.4289 104.904C-49.7119 89.6343 -47.7113 72.3021 -49.0017 49.4555C-49.4042 42.6472 -50.0842 35.3787 -51.1045 27.9481C-52.9583 14.1953 -55.9314 -0.287393 -59.9455 -14.0143C-66.0666 -34.8264 -74.6901 -53.7719 -83.1855 -66.9029" stroke="#FFD3BD" stroke-miterlimit="10"/>
<path d="M275.831 346.447C259.032 354.513 240.824 359.067 222.47 357.529C211.595 356.662 200.626 353.502 190.483 347.846C183.872 344.151 177.655 339.428 172.073 333.638C154.7 315.731 143.49 289.344 130.49 268.722C124.877 259.85 119.962 251.573 112.874 244.969C106.738 239.238 99.3722 235.159 91.5273 232.18C80.7122 228.073 68.6998 225.713 57.8513 223.515C51.8661 222.318 46.1296 220.951 40.7294 219.3C29.5468 215.871 20.3165 212.06 11.1686 206.216C-2.16055 197.691 -16.3777 184.028 -27.7736 165.445C-28.9567 163.542 -30.0592 161.611 -31.1652 159.724C-42.9555 139.184 -48.8347 123.258 -49.8541 108.376C-50.9762 92.313 -47.7422 74.7353 -48.3413 51.5648C-48.5368 44.6147 -49.0552 37.2833 -49.9839 29.6854C-51.6616 15.6869 -54.6615 1.04773 -58.8597 -12.824C-65.3149 -33.866 -74.6779 -52.859 -84.2073 -65.7819" stroke="#FDCFA5" stroke-miterlimit="10"/>
<path d="M273.449 350.519C256.713 358.384 238.581 362.559 220.329 360.818C209.546 359.836 198.666 356.602 188.642 350.964C182.11 347.283 175.931 342.607 170.341 336.942C152.993 319.287 141.469 293.426 128.92 272.609C123.441 263.532 118.714 254.885 111.734 247.939C105.663 241.903 98.2789 237.592 90.409 234.471C79.5349 230.167 67.4113 227.781 56.4341 225.776C50.3636 224.693 44.5735 223.536 39.039 222.122C27.5843 219.211 17.9166 216.015 8.29614 210.732C-5.75592 202.978 -20.8359 189.872 -32.406 171.051C-33.5886 169.145 -34.7292 167.204 -35.7927 165.28C-47.4802 144.47 -52.282 127.329 -52.271 111.803C-52.2365 94.9886 -47.7314 77.1729 -47.6362 53.6337C-47.6284 46.5853 -47.9783 39.103 -48.8225 31.4251C-50.3277 17.2242 -53.3088 2.34868 -57.7329 -11.6326C-64.4832 -32.8968 -74.6237 -51.9456 -85.1477 -64.6515" stroke="#FDCFA5" stroke-miterlimit="10"/>
<path d="M271.064 354.591C254.393 362.212 236.331 366.094 218.222 364.113C207.534 362.972 196.777 359.716 186.796 354.082C180.302 350.449 174.16 345.82 168.607 340.201C151.242 322.835 139.447 297.466 127.351 276.41C121.973 267.076 117.467 258.109 110.553 250.857C104.547 244.515 97.1418 240.016 89.2117 236.699C78.3172 232.207 66.0827 229.795 54.9732 228.027C48.8562 227.066 42.9492 225.928 37.3436 224.943C25.5963 222.815 15.5123 219.972 5.41972 215.251C-9.31969 208.323 -25.3355 195.715 -37.0026 176.672C-38.1812 174.721 -39.3213 172.778 -40.3809 170.807C-51.9621 149.684 -55.7259 131.316 -54.6116 115.206C-53.4214 97.6384 -47.6814 79.5319 -46.8994 55.7112C-46.6497 48.5727 -46.8733 40.9749 -47.6296 33.173C-48.9624 18.7693 -51.9667 3.69282 -56.6131 -10.442C-63.6969 -31.9367 -74.5758 -51.0328 -86.0937 -63.5209" stroke="#FDCFA5" stroke-miterlimit="10"/>
<path d="M268.682 358.719C252.112 366.147 234.088 369.639 216.081 367.454C205.484 366.197 194.819 362.823 184.954 357.252C178.501 353.624 172.397 349.042 166.874 343.557C149.496 326.436 137.465 301.613 125.78 280.352C120.537 270.813 116.219 261.473 109.374 253.87C103.43 247.265 96.0477 242.498 88.0507 239.073C77.0973 234.385 64.7486 231.99 53.5492 230.424C47.3471 229.578 41.3762 228.782 35.6503 227.86C23.6557 225.944 13.1073 224.071 2.54646 219.87C-12.9182 213.761 -29.792 201.669 -41.5943 182.396C-42.811 180.434 -43.9086 178.453 -44.9677 176.48C-56.4461 155.085 -59.134 135.497 -56.9488 118.705C-54.6039 100.381 -47.6333 82.0269 -46.158 57.8357C-45.7018 50.5545 -45.7992 42.8407 -46.4325 34.9667C-47.5896 20.3156 -50.6206 5.08142 -55.4506 -9.19903C-62.8709 -30.8811 -74.4455 -50.0602 -86.9949 -62.3382" stroke="#FDCFA5" stroke-miterlimit="10"/>
<path d="M266.259 362.805C249.754 369.987 231.8 373.185 213.898 370.752C203.392 369.379 192.815 365.93 183.031 360.37C176.657 356.755 170.591 352.221 165.063 346.819C147.709 329.952 135.365 305.66 124.13 284.204C119.026 274.415 114.891 264.746 108.15 256.843C102.271 249.932 94.8709 244.931 86.8489 241.363C75.8366 236.478 63.4157 234.064 52.0842 232.737C45.8356 232.014 39.7341 231.413 33.9126 230.738C21.6465 229.343 10.6616 228.09 -0.370704 224.454C-16.5568 219.124 -34.295 207.637 -46.2676 188.081C-47.4838 186.117 -48.616 184.082 -49.6712 182.063C-61.0085 160.406 -62.6599 139.587 -59.4466 122.146C-55.9092 103.075 -47.7055 84.4285 -45.541 59.9111C-44.8818 52.5311 -44.8146 44.7098 -45.3601 36.7115C-46.3451 21.8572 -49.3958 6.37769 -54.4512 -8.01234C-62.1659 -29.9168 -74.5164 -49.1507 -88.0582 -61.2091" stroke="#FDCFA5" stroke-miterlimit="10"/>
<path d="M263.878 366.933C247.435 373.913 229.557 376.728 211.795 374.098C201.346 372.556 190.93 369.094 181.188 363.537C174.856 359.927 168.827 355.441 163.295 350.121C145.927 333.501 133.347 309.758 122.526 288.054C117.556 278.059 113.609 268.016 106.937 259.76C101.123 252.542 93.7044 247.307 85.654 243.639C74.5794 238.6 62.0513 236.116 50.6264 235.036C44.2929 234.429 38.138 234.04 32.1824 233.604C19.6485 232.687 8.26255 232.109 -3.27935 229.031C-20.1512 224.532 -38.8231 213.547 -50.8924 193.77C-52.1046 191.76 -53.2364 189.722 -54.2912 187.701C-65.5224 165.729 -66.1029 143.728 -61.8239 125.647C-57.1367 105.861 -47.7009 86.9216 -44.8477 62.0771C-43.9824 54.5541 -43.7541 46.6692 -44.2118 38.5464C-45.0248 23.4883 -48.0986 7.80698 -53.3374 -6.72857C-61.3848 -28.8642 -74.4719 -48.1445 -89.0052 -59.9826" stroke="#FDCFA5" stroke-miterlimit="10"/>
<path d="M261.5 371.031C245.157 377.816 227.318 380.238 209.656 377.403C199.299 375.745 188.971 372.208 179.348 366.67C173.057 363.065 167.104 358.635 161.564 353.442C144.217 337.123 131.328 313.87 120.955 291.969C116.124 281.724 112.36 271.351 105.754 262.786C100.005 255.259 92.6034 249.843 84.4546 245.97C73.3213 240.733 60.7176 238.275 49.1259 237.382C42.7075 236.89 36.4991 236.714 30.4482 236.526C17.6432 236.133 5.81794 236.222 -6.19122 233.668C-23.7903 230.038 -43.3149 219.53 -55.5192 199.522C-56.7694 197.501 -57.8622 195.47 -58.9095 193.358C-70.0383 171.115 -69.5453 147.886 -64.2397 129.154C-58.4004 108.607 -47.7334 89.3753 -44.1535 64.2115C-43.0855 56.5893 -42.6894 48.5524 -43.0629 40.3489C-43.7006 25.0427 -46.801 9.20356 -52.2614 -5.48592C-60.6412 -27.8528 -74.4643 -47.1793 -89.9885 -58.7962" stroke="#FDCFA5" stroke-miterlimit="10"/>
<path d="M259.119 375.123C242.842 381.66 225.073 383.786 207.516 380.701C197.25 378.926 187.053 375.278 177.469 369.788C171.257 366.195 165.303 361.805 159.797 356.704C142.437 340.632 129.313 317.931 119.35 295.824C114.615 285.364 111.076 274.623 104.577 265.712C98.8933 257.876 91.4737 252.225 83.3002 248.208C72.1083 242.773 59.3944 240.288 47.7096 239.643C41.2449 239.276 34.9063 239.296 28.7601 239.357C15.6844 239.489 3.42383 240.202 -9.05553 238.217C-27.3776 235.416 -47.7958 225.421 -60.1348 205.181C-61.3844 203.158 -62.5117 201.072 -63.5202 198.966C-74.5429 176.405 -73.0191 151.98 -66.6074 132.568C-59.5818 111.312 -47.6848 91.7852 -43.4523 66.2399C-42.1819 58.518 -41.6599 50.3644 -41.9073 42.0441C-42.3733 26.533 -45.4933 10.4469 -51.1436 -4.30053C-59.8168 -26.8913 -74.4137 -46.2727 -90.9277 -57.668" stroke="#FDCFA5" stroke-miterlimit="10"/>
<path d="M256.734 379.273C240.558 385.614 222.826 387.346 205.41 384.063C195.235 382.171 185.125 378.448 175.661 372.977C169.49 369.39 163.574 365.048 158.101 360.038C140.766 344.223 127.369 322.067 117.819 299.71C113.261 289.006 109.867 277.924 103.433 268.703C97.8111 260.601 90.4154 254.679 82.1753 250.553C70.9635 244.928 58.1394 242.416 46.3232 242.012C39.7739 241.761 33.3821 241.994 27.1057 242.252C13.7596 242.91 1.10242 244.258 -11.8852 242.835C-30.8877 240.827 -52.2021 231.391 -64.6757 210.919C-65.9213 208.85 -67.0482 206.761 -68.0912 204.601C-78.9728 181.775 -76.4155 156.107 -68.9406 136.049C-60.7647 114.029 -47.6036 94.259 -42.7225 68.3755C-41.2079 60.5178 -40.5603 52.2473 -40.7202 43.8016C-41.0145 28.0851 -44.1575 11.7957 -50.0289 -3.10638C-59.0339 -25.9297 -74.3655 -45.3576 -91.8718 -56.4863" stroke="#FDCFA5" stroke-miterlimit="10"/>
<path d="M254.36 383.372C238.249 389.465 220.587 390.898 203.275 387.364C193.195 385.311 183.17 381.558 173.786 376.098C167.656 372.516 161.813 368.275 156.335 363.348C138.986 347.784 125.358 326.138 116.214 303.62C111.79 292.708 108.582 281.25 102.253 271.725C96.6957 263.314 89.2785 257.201 81.0171 252.885C69.7468 247.061 56.809 244.567 44.9034 244.368C38.3078 244.242 31.8277 244.636 25.4142 245.179C11.8013 246.321 -1.29406 248.341 -14.7547 247.534C-34.4792 246.358 -56.6476 237.447 -69.2557 216.743C-70.5008 214.672 -71.6621 212.528 -72.6662 210.374C-83.442 187.231 -79.8207 160.415 -71.3182 139.657C-61.9962 116.916 -47.6035 96.8067 -41.9974 70.6019C-40.2807 62.6445 -39.4691 54.2654 -39.5414 45.6943C-39.6609 29.7285 -42.8304 13.2804 -48.8845 -1.76773C-58.2209 -24.8232 -74.2867 -44.2966 -92.7814 -55.2018" stroke="#FDCFA5" stroke-miterlimit="10"/>
<path d="M251.932 387.53C235.884 393.418 218.299 394.464 201.088 390.722C191.099 388.551 181.201 384.731 171.859 379.275C165.767 375.742 159.964 371.505 154.52 366.67C137.197 351.364 123.333 330.274 114.563 307.496C110.278 296.332 107.25 284.584 100.992 274.659C95.5005 265.937 88.0653 259.588 79.7409 255.119C68.4124 249.095 55.4031 246.582 43.3313 246.573C36.6512 246.563 30.1181 247.171 23.6096 247.966C9.76163 249.689 -3.80292 252.285 -17.7325 252.051C-38.1748 251.665 -61.238 243.316 -73.9804 222.379C-75.2633 220.297 -76.3822 218.115 -77.3859 215.959C-88.0592 192.542 -83.3676 164.486 -73.8036 143.079C-63.3016 119.667 -47.6784 99.2165 -41.4213 72.6279C-39.5027 64.5702 -38.5622 56.0294 -38.5122 47.3852C-38.4602 31.2132 -41.6527 14.5614 -47.9276 -0.641785C-57.5568 -23.9219 -74.3943 -43.4497 -93.8762 -54.131" stroke="#FDCFA5" stroke-miterlimit="10"/>
<path d="M249.556 391.642C224.335 400.55 195.191 397.186 170.021 382.412C144.852 367.638 124 341.573 113.037 311.388C108.89 299.97 106.044 287.888 99.8524 277.65C87.0597 256.408 63.1095 248.534 41.9502 248.938C20.8293 249.351 0.606248 256.278 -20.5565 256.727C-41.6809 257.184 -65.6345 249.354 -78.511 228.184C-93.4946 203.487 -87.7393 170.757 -76.1317 146.612C-64.4822 122.43 -47.6366 101.727 -40.6557 74.8143C-34.5662 51.3184 -36.7831 24.1646 -46.743 0.650957C-56.703 -22.8627 -74.2732 -42.4364 -94.7415 -52.8929" stroke="#FF7E07" stroke-miterlimit="10"/>
<path d="M242.692 393.088C217.689 401.668 188.957 398.02 164.219 383.107C139.481 368.195 118.913 342.282 108.34 312.211C104.22 300.487 101.685 287.933 95.7565 277.399C83.728 256.023 60.6537 247.814 40.2437 247.478C19.8721 247.151 0.14215 253.122 -20.7139 253.006C-41.8453 252.92 -65.9195 245.535 -79.1991 224.701C-94.5548 200.469 -89.7812 167.636 -78.5155 143.105C-67.2498 118.573 -50.0316 97.7419 -42.5769 71.563C-36.138 48.9211 -38.0463 22.7807 -47.1998 0.0398916C-56.3532 -22.701 -72.8388 -41.9254 -92.4949 -52.4676" stroke="#FF7E07" stroke-miterlimit="10"/>
<path d="M235.798 394.49C211.055 402.701 182.693 398.804 158.345 383.789C133.997 368.774 113.758 342.935 103.612 312.99C99.5223 300.914 97.3293 287.982 91.6632 277.151C80.4322 255.694 58.1974 247.096 38.5739 246.022C18.9156 244.896 -0.325226 249.95 -20.8779 249.31C-42.012 248.632 -66.251 241.776 -79.9287 221.237C-95.6968 197.513 -91.8191 164.507 -80.9783 139.661C-70.1375 114.815 -52.5448 93.8112 -44.5831 68.4252C-37.7613 46.6976 -39.3935 21.4816 -47.7424 -0.479928C-56.1297 -22.4499 -71.4948 -41.3135 -90.3401 -51.9416" stroke="#FF7E07" stroke-miterlimit="10"/>
<path d="M228.942 395.945C204.422 403.779 176.473 399.594 152.512 384.521C128.551 369.447 108.684 343.645 98.9263 313.818C94.8673 301.388 93.0152 288.074 87.5768 276.891C77.1036 255.344 55.7807 246.414 36.8701 244.536C17.9594 242.658 -0.791981 246.789 -21.0754 245.567C-42.1722 244.303 -66.6119 237.971 -80.6474 217.738C-96.8221 194.481 -93.8414 161.344 -83.4252 136.181C-73.0089 111.018 -55.0095 89.8933 -46.5361 65.215C-39.4131 44.4354 -40.6551 20.1747 -48.236 -1.0562C-55.8204 -22.2423 -70.1088 -40.707 -88.1408 -51.4669" stroke="#FF7E07" stroke-miterlimit="10"/>
<path d="M222.04 397.412C197.779 404.919 170.167 400.428 146.639 385.214C123.111 370 103.574 344.272 94.2008 314.608C90.1728 301.821 88.6573 288.169 83.4498 276.586C73.7296 254.991 53.2862 245.63 35.126 242.95C16.9658 240.27 -1.29616 243.471 -21.3129 241.709C-42.4507 239.882 -66.9673 234.015 -81.4383 214.118C-98.0173 191.331 -95.9348 158.108 -85.9391 132.58C-75.9053 107.061 -57.585 85.8878 -48.6021 61.9217C-41.1378 42.0596 -42.0673 18.7437 -48.8473 -1.69855C-55.6273 -22.1408 -68.8411 -40.2043 -86.0607 -51.0972" stroke="#FFA14A" stroke-miterlimit="10"/>
<path d="M215.197 398.833C191.161 405.957 163.961 401.22 140.863 385.91C117.765 370.601 98.5579 344.947 89.5688 315.448C85.5721 302.301 84.3577 288.254 79.4119 276.367C70.443 254.725 50.8781 244.928 33.4639 241.486C16.0498 238.043 -1.75392 240.209 -21.4686 237.957C-42.604 235.527 -67.237 230.165 -82.1031 210.616C-99.0458 188.311 -97.9317 154.94 -88.2833 129.109C-78.6731 103.268 -59.9891 81.9628 -50.4611 58.722C-42.6954 39.7753 -43.2786 17.4645 -49.2598 -2.18386C-55.241 -21.8322 -67.3792 -39.5372 -83.7531 -50.5107" stroke="#FFA14A" stroke-miterlimit="10"/>
<path d="M208.302 400.305C184.531 407.052 157.705 402.059 135.003 386.599C112.3 371.139 93.5007 345.578 84.8569 316.236C80.8917 302.727 80.012 288.337 75.3345 276.053C67.0736 254.4 48.462 244.181 31.7584 239.917C15.0929 235.661 -2.22138 236.883 -21.6679 234.083C-42.7958 231.002 -67.5497 226.239 -82.8429 206.987C-100.185 185.16 -99.96 151.659 -90.7313 125.459C-81.5025 99.2586 -62.5408 77.8937 -52.4703 55.3829C-44.4464 37.3946 -44.6017 16.0221 -49.8244 -2.83555C-55.047 -21.6932 -66.0776 -38.984 -81.6417 -50.0925" stroke="#FFA14A" stroke-miterlimit="10"/>
<path d="M201.446 401.804C177.885 408.15 151.452 402.911 129.125 387.365C106.799 371.819 88.3955 346.341 80.0896 317.199C76.1529 303.346 75.5682 288.623 71.1514 276.002C63.5872 254.415 45.8826 243.685 29.949 238.659C13.9775 233.626 -2.85318 233.804 -22.0073 230.463C-43.1452 226.773 -68.0675 222.517 -83.725 203.653C-101.439 182.346 -102.143 148.801 -93.3274 122.271C-84.5116 95.7404 -65.2261 74.4043 -54.6015 52.5715C-46.3152 35.5749 -46.0859 15.2144 -50.5145 -2.85812C-54.9466 -20.8853 -64.8769 -37.7814 -79.6855 -48.9751" stroke="#FFA14A" stroke-miterlimit="10"/>
<path d="M194.549 403.252C171.23 409.247 145.152 403.708 123.237 388.087C101.321 372.466 83.2736 347.067 75.3042 318.133C71.3954 303.938 71.1396 288.938 66.9515 275.883C60.0439 254.357 43.281 243.123 28.0766 237.326C12.8378 231.476 -3.64949 231.916 -22.4204 226.804C-43.4635 221.093 -68.625 218.765 -84.7233 200.278C-102.811 179.497 -104.439 145.871 -95.9999 119.07C-87.5609 92.2691 -68.0197 70.859 -56.7721 49.8198C-48.22 33.7772 -47.6068 14.4373 -51.2504 -2.75241C-54.8905 -19.9876 -63.7684 -36.4018 -77.7829 -47.7161" stroke="#FFA14A" stroke-miterlimit="10"/>
<path d="M187.691 404.759C164.579 410.348 138.854 404.553 117.352 388.812C95.8091 373.107 78.155 347.798 70.518 319.118C66.6373 304.579 66.6753 289.248 62.7466 275.856C56.4944 254.392 40.7062 242.708 26.1989 236.037C11.6882 229.411 -4.40108 228.875 -22.8407 223.18C-43.885 216.716 -69.1886 215.049 -85.6889 196.948C-104.187 176.687 -106.699 142.989 -98.6743 115.909C-90.6496 88.8288 -70.8189 67.399 -58.9843 47.1023C-50.2083 32.0544 -49.1361 13.7559 -52.0272 -2.64749C-54.9182 -19.0508 -62.7008 -35.0641 -75.9258 -46.4538" stroke="#FFA14A" stroke-miterlimit="10"/>
<path d="M180.795 406.265C157.891 411.446 132.556 405.403 111.426 389.578C90.2966 373.752 73.0321 348.578 65.6925 320.1C61.8778 305.225 62.1676 289.597 58.5427 275.786C52.9415 254.429 38.0955 242.192 24.3154 234.744C10.5353 227.295 -4.97399 224.381 -23.2683 219.543C-44.5095 213.907 -69.7616 211.365 -86.6973 193.6C-105.567 173.87 -109.037 140.083 -101.388 112.731C-93.7392 85.3798 -73.6959 63.913 -61.1963 44.3327C-52.2351 30.2745 -50.7015 12.9753 -52.8069 -2.58489C-54.9123 -18.1451 -61.6393 -33.7647 -74.0761 -45.2304" stroke="#FFA14A" stroke-miterlimit="10"/>
<path d="M173.942 407.73C151.283 412.509 126.302 406.164 105.541 390.301C84.7799 374.437 67.9111 349.308 60.9063 321.042C57.1196 305.822 57.6608 289.898 54.3392 275.666C49.3532 254.363 35.52 241.634 22.4279 233.397C9.37361 225.168 -5.65624 221.194 -23.6646 215.854C-44.9131 209.555 -70.2995 207.583 -87.6386 190.255C-106.875 171.013 -111.271 137.239 -104.032 109.562C-96.7923 81.8851 -76.5024 60.4363 -63.3806 41.6126C-54.2311 28.5024 -52.2439 12.2981 -53.5652 -2.4157C-54.8865 -17.1295 -60.5634 -32.3082 -72.21 -43.8956" stroke="#FFA14A" stroke-miterlimit="10"/>
<path d="M167.039 409.248C144.586 413.663 119.998 407.022 99.6509 391.036C79.3033 375.051 62.8273 350.01 56.1158 321.992C52.3953 306.433 53.1874 290.21 50.1273 275.591C45.7111 254.425 32.8932 241.155 20.5678 232.097C8.2424 223.038 -6.34564 217.991 -24.0673 212.147C-45.3559 205.128 -70.8401 203.784 -88.5771 186.847C-108.182 168.139 -113.495 134.285 -106.627 106.288C-99.7586 78.2905 -79.3376 56.8322 -65.4788 38.7455C-56.2213 26.6141 -53.6611 11.4409 -54.2376 -2.43346C-54.8142 -16.3078 -59.4014 -31.083 -70.2619 -42.7479" stroke="#FFA14A" stroke-miterlimit="10"/>
<path d="M160.188 410.716C137.981 414.727 113.744 407.827 93.768 391.757C73.7915 375.688 57.7448 350.747 51.367 322.942C47.678 306.99 48.717 290.515 45.9592 275.473C42.1148 254.398 30.3098 240.587 18.708 230.742C7.06847 220.889 -7.03777 214.728 -24.4771 208.424C-45.772 200.738 -71.351 199.977 -89.5613 183.418C-109.535 165.249 -115.762 131.316 -109.306 103.038C-102.849 74.7604 -82.2558 53.2572 -67.7025 35.949C-58.2957 24.7638 -55.2462 10.7013 -55.0383 -2.36703C-54.8304 -15.4354 -58.3715 -29.7673 -68.4479 -41.5092" stroke="#FFA14A" stroke-miterlimit="10"/>
<path d="M153.295 412.24C131.296 415.837 107.411 408.677 87.8426 392.532C68.2747 376.386 52.6225 351.492 46.5334 323.984C42.9102 307.692 44.1235 290.901 41.7396 275.496C38.4659 254.514 27.7099 240.168 16.7963 229.479C5.88269 218.791 -7.78352 211.55 -24.9407 204.784C-46.2756 196.375 -71.952 196.245 -90.5587 180.082C-110.896 162.408 -118.081 128.482 -111.994 99.8846C-105.908 71.2876 -85.218 49.7223 -69.9341 33.2035C-60.4542 22.9506 -56.8376 9.97356 -55.8538 -2.19431C-54.8665 -14.4082 -57.3636 -28.2956 -66.6502 -40.207" stroke="#FFA14A" stroke-miterlimit="10"/>
<path d="M146.439 413.773C124.682 417.009 101.151 409.542 81.957 393.266C62.7629 376.99 47.5733 352.252 41.7415 324.942C38.184 308.31 39.6056 291.255 37.5262 275.378C34.7811 254.526 25.072 239.642 14.8832 228.116C4.69432 216.589 -8.5324 208.264 -25.4076 201.035C-46.7819 191.9 -72.5515 192.358 -91.5946 176.631C-112.298 159.499 -120.393 125.497 -114.679 96.6263C-109.003 67.7472 -88.2147 46.0737 -72.1303 30.4099C-62.5365 21.055 -58.3986 9.25057 -56.6337 -2.10608C-54.8687 -13.4627 -56.3204 -26.9506 -64.8256 -38.9401" stroke="#FFA14A" stroke-miterlimit="10"/>
<path d="M139.546 415.251C117.997 418.071 94.8542 410.351 76.0681 393.998C57.2821 377.646 42.486 352.954 36.9453 325.898C33.457 308.877 35.0487 291.551 33.3075 275.253C31.0932 254.486 22.4293 239.062 12.9606 226.74C3.49192 214.418 -9.28894 204.913 -25.8856 197.266C-47.2574 187.365 -73.1638 188.496 -92.6006 173.17C-113.665 156.537 -122.672 122.504 -117.368 93.3508C-112.061 64.1511 -91.212 42.3603 -74.3668 27.5453C-64.7351 19.0743 -59.9642 8.47184 -57.4576 -2.07976C-54.9543 -12.5852 -55.3286 -25.618 -63.0126 -37.7238" stroke="#FFA14A" stroke-miterlimit="10"/>
<path d="M132.698 416.788C111.395 419.199 88.602 411.216 70.1853 394.779C51.7686 378.342 37.4371 353.761 32.1526 326.906C28.73 309.543 30.4947 291.898 29.0875 275.226C27.403 254.544 19.8196 238.587 11.0696 225.468C2.32292 212.303 -9.98224 201.714 -26.3352 193.593C-47.708 182.971 -73.7475 184.731 -93.6149 169.798C-115.043 153.713 -124.961 119.653 -120.059 90.1247C-115.157 60.5966 -94.2442 38.6429 -76.5715 24.7897C-66.8644 17.2145 -61.5337 7.75496 -58.2561 -1.88771C-54.9786 -11.5304 -54.312 -24.1611 -61.2177 -36.3457" stroke="#FFA14A" stroke-miterlimit="10"/>
<path d="M125.849 418.335C104.753 420.326 82.3485 412.088 64.3047 395.52C46.2609 378.951 32.356 354.472 27.3581 327.92C24.0046 310.166 25.8976 292.285 24.9058 275.161C23.7089 254.602 17.2041 238.11 9.17488 224.144C1.14571 210.177 -10.7149 198.401 -26.7863 189.812C-48.1932 178.411 -74.3301 180.858 -94.5887 166.329C-116.375 150.747 -127.238 116.65 -122.707 86.8468C-118.176 57.0434 -97.269 34.8159 -78.775 21.9729C-69.0648 15.2328 -63.1076 7.02922 -59.0542 -1.79471C-55.0384 -10.6272 -53.299 -22.8005 -59.4278 -35.0647" stroke="#FFA14A" stroke-miterlimit="10"/>
<path d="M118.959 419.824C98.0681 421.441 76.0575 412.854 58.3792 396.247C40.7385 379.648 27.2663 355.18 22.5204 328.876C19.2324 310.777 21.2601 292.567 20.6385 275.074C19.9315 254.592 14.5405 237.571 7.19319 222.746C-0.15408 207.921 -11.5368 195.008 -27.3303 185.996C-48.7333 173.823 -74.9635 176.913 -95.6905 162.819C-117.834 147.742 -129.603 113.618 -125.442 83.5395C-121.318 53.4522 -100.414 30.904 -81.0632 19.0829C-71.3093 13.1431 -64.7271 6.19944 -59.9407 -1.76537C-55.1542 -9.73019 -52.3822 -21.4534 -57.7322 -33.844" stroke="#FFA14A" stroke-miterlimit="10"/>
<path d="M112.116 421.375C91.4336 422.57 69.7724 413.718 52.5002 397.034C35.2313 380.303 22.2217 355.947 17.7273 329.893C14.5457 311.41 16.6293 292.899 16.4179 274.999C16.1622 254.585 11.8825 237.034 5.24988 221.402C-1.38278 205.771 -12.2849 191.671 -27.801 182.234C-49.1961 169.24 -75.5633 173.06 -96.6788 159.373C-119.179 144.805 -131.851 110.655 -128.096 80.2919C-124.341 49.929 -103.471 26.9579 -83.239 16.3098C-73.4417 11.1729 -66.277 5.53105 -60.7219 -1.56351C-55.1668 -8.65807 -51.361 -19.9764 -55.9374 -32.4476" stroke="#FFA14A" stroke-miterlimit="10"/>
<path d="M105.228 422.924C84.7914 423.703 63.4797 414.585 46.6165 397.778C29.7533 380.97 17.1683 356.717 12.9282 330.867C9.81194 312.038 12.0296 293.195 12.1867 274.924C12.3812 254.579 9.20704 236.541 3.29097 220.054C-2.62509 203.566 -13.0474 188.275 -28.327 178.451C-49.7169 164.679 -76.2129 169.139 -97.7562 155.899C-120.611 141.841 -134.187 107.712 -130.835 77.0174C-127.482 46.3232 -106.644 22.8811 -85.5359 13.4558C-75.6923 9.07789 -67.9467 4.74182 -61.6249 -1.48004C-55.3406 -7.71045 -50.4663 -18.6146 -54.2706 -31.1669" stroke="#FFA14A" stroke-miterlimit="10"/>
<path d="M98.3863 424.429C78.1958 424.792 57.2334 415.407 40.738 398.513C24.2426 381.62 12.1598 357.441 8.12932 331.881C5.11925 312.666 7.35497 293.512 7.99516 274.846C8.6388 254.57 6.57105 235.997 1.36667 218.697C-3.83771 201.398 -13.8184 184.902 -28.8206 174.652C-50.1638 160.062 -76.8318 165.247 -98.7602 152.42C-121.968 138.873 -136.442 104.719 -133.457 73.7479C-130.469 42.7301 -109.659 18.7689 -87.6855 10.6629C-77.7926 6.99981 -69.4374 4.07525 -62.385 -1.32663C-55.3326 -6.72851 -49.3992 -17.1245 -52.4674 -29.8137" stroke="#FFA14A" stroke-miterlimit="10"/>
<path d="M91.5024 425.987C71.5179 425.971 50.946 416.279 34.8559 399.307C18.7658 382.335 7.10985 358.214 3.32955 332.904C0.422165 313.348 2.71646 293.843 3.76383 274.764C4.85882 254.51 3.92881 235.454 -0.565315 217.338C-5.05604 199.175 -14.5582 181.48 -29.3202 170.792C-50.6528 155.374 -77.4125 161.259 -99.7645 148.882C-123.323 135.849 -138.729 101.661 -136.108 70.3648C-133.487 39.0682 -112.696 14.445 -89.9014 7.69999C-79.9599 4.75377 -71.031 3.18965 -63.2198 -1.28826C-55.4051 -5.81285 -48.4464 -15.8019 -50.746 -28.5741" stroke="#FFA14A" stroke-miterlimit="10"/>
<path d="M84.6591 427.552C64.9204 427.117 44.6971 417.157 28.9771 400.052C13.2537 382.993 2.05734 358.986 -1.47014 333.883C-4.27177 313.939 -1.95973 294.121 -0.472295 274.684C1.06948 254.5 1.23694 234.951 -2.54201 215.923C-6.32436 196.943 -15.3493 178.044 -29.8719 166.919C-51.1535 150.631 -78.0829 157.247 -100.858 145.324C-124.766 132.808 -141.069 98.6442 -138.848 67.0149C-136.626 35.3856 -115.858 10.1468 -92.2134 4.86936C-82.2235 2.64262 -72.7257 2.48999 -64.1507 -1.15453C-55.5756 -4.79904 -47.5975 -14.3329 -49.1237 -27.2814" stroke="#FFA14A" stroke-miterlimit="10"/>
<path d="M77.7748 429.069C58.2452 428.204 38.3707 417.975 23.0546 400.791C7.73849 383.608 -2.99887 359.714 -6.31468 334.857C-9.01407 314.57 -6.67769 294.344 -4.75141 274.547C-2.79799 254.376 -1.46134 234.349 -4.5708 214.492C-7.68027 194.635 -16.1915 174.538 -30.4778 163.019C-51.7107 145.906 -78.8047 153.21 -101.963 141.75C-126.216 129.706 -143.411 95.5666 -141.592 63.65C-139.774 31.7334 -118.938 5.65922 -94.4871 1.89151C-84.4087 0.348122 -74.3441 1.61118 -65.0484 -1.15955C-55.7528 -3.93028 -46.7176 -13.0467 -47.4791 -26.079" stroke="#FFA14A" stroke-miterlimit="10"/>
<path d="M70.9458 430.637C51.6588 429.397 32.139 418.803 17.1853 401.58C2.23488 384.31 -8.00402 360.492 -11.1121 335.929C-13.7061 315.252 -11.3523 294.712 -8.95117 274.563C-6.55 254.415 -4.12173 233.892 -6.52622 213.211C-8.93072 192.53 -16.926 171.183 -31.0139 159.263C-52.1947 141.276 -79.4593 149.363 -103.033 138.313C-127.636 126.837 -145.716 92.6302 -144.261 60.4356C-142.807 28.2409 -121.94 1.32101 -96.7303 -0.847138C-86.5232 -1.7433 -75.9745 1.01631 -65.923 -0.869575C-55.8715 -2.75546 -45.8194 -11.4618 -45.8183 -24.5782" stroke="#FFA14A" stroke-miterlimit="10"/>
<path d="M593.6 158.557C575.608 169.795 556.568 179.371 536.424 181.111C516.322 182.816 494.876 175.761 480.281 157.653C462.853 136.021 456.666 101.246 436.195 84.5652C422.942 73.7753 406.518 72.9349 391.009 71.0203C375.462 69.0975 358.681 64.861 348.299 49.7825C329.69 22.7452 340.96 -24.9537 320.425 -49.6441C306.865 -65.9169 286.052 -64.187 268.021 -69.5608C245.215 -76.3783 224.919 -96.6927 214.254 -123.41C203.589 -150.127 202.789 -182.718 212.076 -209.774" stroke="#FDCFA5" stroke-miterlimit="10"/>
<path d="M591.172 162.545C573.284 173.607 554.28 182.858 534.286 184.326C522.224 185.237 509.669 182.98 498.43 177.105C491.088 173.278 484.308 167.862 478.566 160.828C461.165 139.424 454.574 105.245 434.653 88.2113C427.569 82.1628 419.671 78.8752 411.358 76.8134C404.322 75.0648 397.019 74.1793 389.846 73.1461C379.787 71.7221 369.12 69.5134 360.001 64.2606C354.95 61.3555 350.368 57.5424 346.598 52.4563C339.16 42.4807 335.979 29.5957 333.679 16.0648C330.32 -3.42398 328.694 -24.3418 319.128 -39.7134C318.118 -41.3713 316.981 -42.9246 315.763 -44.4512C302.351 -61.029 282.504 -60.4049 265.599 -66.4264C249.043 -72.3741 234.14 -86.1149 223.491 -104.692C220.415 -110.069 217.726 -115.846 215.417 -121.937C211.294 -132.92 208.587 -144.829 207.31 -156.875C205.363 -174.796 206.553 -192.974 211.114 -208.952" stroke="#FDCFA5" stroke-miterlimit="10"/>
<path d="M588.786 166.604C570.965 177.437 552.036 186.369 532.147 187.644C520.14 188.436 507.713 186.115 496.558 180.247C489.258 176.422 482.513 171.092 476.77 164.089C459.393 142.96 452.48 109.354 433.064 92.0032C426.075 85.7887 418.41 82.1061 410.206 79.713C403.237 77.6685 395.916 76.5583 388.715 75.4296C378.596 73.8154 367.857 71.5875 358.605 66.5606C353.508 63.7721 348.872 60.1602 344.931 55.2484C337.262 45.7326 333.597 33.4682 330.82 20.4705C326.767 1.76544 324.235 -18.6793 314.532 -34.282C313.484 -35.9508 312.39 -37.5417 311.173 -39.0708C297.866 -55.9185 279.063 -56.3881 263.288 -63.1455C247.856 -69.7429 234.207 -83.8125 224.335 -102.696C221.465 -108.171 218.904 -114.063 216.723 -120.269C212.775 -131.453 210.044 -143.564 208.543 -155.765C206.298 -173.913 206.702 -192.157 210.258 -207.937" stroke="#FDCFA5" stroke-miterlimit="10"/>
<path d="M586.405 170.619C568.686 181.271 549.792 189.873 530.01 190.909C518.099 191.548 505.798 189.205 494.725 183.345C487.506 179.532 480.799 174.246 475.052 167.318C457.662 146.417 450.387 113.384 431.473 95.7615C424.621 89.3467 417.145 85.3032 409.008 82.613C402.104 80.2719 394.801 78.988 387.539 77.669C377.361 75.8641 366.511 73.6091 357.164 68.8179C351.982 66.1387 347.256 62.6779 343.216 58.0447C335.276 48.9838 331.202 37.4041 327.913 24.8924C323.131 6.92587 319.685 -12.9538 309.889 -28.8205C308.841 -30.4919 307.751 -32.1282 306.538 -33.7029C293.339 -50.8615 275.539 -52.4368 260.926 -59.8372C246.576 -67.0938 234.257 -81.4746 225.087 -100.722C222.422 -106.294 220.031 -112.335 217.936 -118.62C214.165 -130.048 211.408 -142.315 209.721 -154.663C207.139 -173.042 206.797 -191.341 209.345 -206.876" stroke="#FFC087" stroke-miterlimit="10"/>
<path d="M584.021 174.648C566.369 185.065 547.549 193.343 527.907 194.19C516.089 194.717 503.877 192.302 492.885 186.452C485.708 182.642 479.039 177.401 473.323 170.603C455.919 149.933 448.321 117.49 429.911 99.5543C423.153 92.9747 415.904 88.5781 407.88 85.5121C401.038 82.9171 393.719 81.3643 386.393 79.8981C376.156 77.9021 365.229 75.6717 355.714 71.0581C350.481 68.5405 345.669 65.1886 341.49 60.8274C333.279 52.2244 328.804 41.247 324.992 29.3551C319.517 12.1841 315.165 -7.2113 305.193 -23.3131C304.149 -25.0299 303.021 -26.6767 301.847 -28.2452C288.791 -45.6611 271.954 -48.3536 258.464 -56.4493C245.236 -64.3577 234.206 -79.0565 225.775 -98.6578C223.319 -104.369 221.091 -110.471 219.084 -116.878C215.488 -128.505 212.71 -141.013 210.795 -153.47C207.877 -172.078 206.828 -190.421 208.334 -205.759" stroke="#F29137" stroke-miterlimit="10"/>
<path d="M581.643 178.735C564.052 188.958 545.305 196.909 525.768 197.515C514.042 197.931 501.961 195.408 491.008 189.603C483.872 185.798 477.241 180.602 471.559 173.891C454.179 153.466 446.181 121.603 428.308 103.407C421.647 96.6195 414.626 91.8696 406.668 88.5057C399.891 85.6132 392.554 83.8343 385.198 82.272C374.94 80.093 363.862 77.8278 354.251 73.4527C348.933 71.0458 344.067 67.8986 339.791 63.7757C331.309 55.6331 326.389 45.2966 322.102 33.9495C315.936 17.5358 310.637 -1.33592 300.567 -17.6544C299.485 -19.3814 298.399 -21.0652 297.229 -22.6788C284.276 -40.3582 268.442 -44.2058 256.111 -52.946C243.966 -61.5585 234.26 -76.5227 226.525 -96.4403C224.274 -102.247 222.215 -108.497 220.294 -114.982C216.871 -126.805 214.07 -139.51 211.966 -152.067C208.747 -170.849 206.917 -189.292 207.421 -204.421" stroke="#F29137" stroke-miterlimit="10"/>
<path d="M579.254 182.769C561.764 192.806 543.054 200.378 523.619 200.786C511.985 201.09 499.992 198.495 489.16 192.708C482.104 188.915 475.511 183.765 469.823 177.132C452.43 156.943 444.109 125.676 426.735 107.211C420.171 100.215 413.378 95.111 405.485 91.4482C398.771 88.3007 391.456 86.2601 384.037 84.5499C373.719 82.1791 362.567 79.8955 352.827 75.7077C347.461 73.4201 342.505 70.4262 338.091 66.5773C329.377 58.9041 323.975 49.2015 319.211 38.4003C312.314 22.7803 306.15 4.40604 295.942 -12.1385C294.861 -13.8676 293.737 -15.5616 292.571 -17.2205C279.724 -35.2082 264.89 -40.1707 253.681 -49.6091C242.655 -58.8763 234.201 -74.2103 227.239 -94.4295C225.193 -100.332 223.262 -106.695 221.468 -113.293C218.222 -125.359 215.394 -138.218 213.066 -150.926C209.51 -169.936 206.936 -188.428 206.438 -203.349" stroke="#F29137" stroke-miterlimit="10"/>
<path d="M576.825 186.856C559.401 196.655 540.764 203.9 521.47 204.117C509.931 204.265 498.063 201.649 487.273 195.864C480.259 192.075 473.703 186.97 468.046 180.468C450.674 160.566 441.999 129.802 425.163 111.074C418.697 103.87 412.127 98.453 404.345 94.412C397.697 90.9654 390.361 88.7409 382.916 86.8906C372.538 84.3275 361.271 82.0606 351.44 78.0688C345.988 75.8924 340.94 73.0956 336.432 69.4427C327.448 62.2319 321.637 53.2245 316.363 42.9186C308.778 28.0589 301.706 10.2182 291.323 -6.56156C290.245 -8.33624 289.122 -10.0323 287.956 -11.6933C275.213 -29.947 261.382 -36.0709 251.33 -46.1581C241.387 -56.1337 234.254 -71.7358 227.991 -92.3179C226.153 -98.3603 224.385 -104.785 222.683 -111.549C219.611 -123.814 216.801 -136.906 214.246 -149.723C210.393 -168.954 207.039 -187.548 205.536 -202.216" stroke="#F29137" stroke-miterlimit="10"/>
<path d="M574.444 190.899C557.082 200.501 538.518 207.417 519.328 207.392C507.843 207.418 496.101 204.738 485.432 198.972C478.455 195.23 471.979 190.137 466.278 183.706C448.892 164.043 439.898 133.838 423.556 114.884C417.183 107.514 410.805 101.69 403.128 97.3576C396.541 93.6549 389.19 91.1594 381.68 89.1607C371.243 86.405 359.902 84.1198 349.899 80.3519C344.4 78.2955 339.262 75.6532 334.616 72.2758C325.362 65.5294 319.108 57.1682 313.358 47.4119C305.042 33.3514 297.066 16.0044 286.585 -0.992756C285.508 -2.76943 284.389 -4.51089 283.227 -6.21713C270.628 -24.7707 257.722 -32.0749 248.861 -42.7597C239.961 -53.4528 234.188 -69.3138 228.62 -90.214C226.986 -96.3524 225.387 -102.926 223.77 -109.768C220.871 -122.231 218.038 -135.52 215.259 -148.489C211.07 -167.946 206.973 -186.587 204.469 -201.044" stroke="#F29137" stroke-miterlimit="10"/>
<path d="M572.057 194.952C554.799 204.323 536.231 210.892 517.182 210.676C505.788 210.59 494.135 207.837 483.547 202.08C476.651 198.351 470.17 193.339 464.507 186.952C447.107 167.527 437.791 137.923 421.951 118.654C415.675 111.074 409.524 104.893 401.917 100.216C395.395 96.2125 388.064 93.4968 380.49 91.3491C369.993 88.4003 358.58 86.0967 348.444 82.5611C342.859 80.6167 337.629 78.1726 332.925 75.0442C323.401 68.7626 316.704 61.0487 310.479 51.8425C301.475 38.5468 292.593 21.7368 281.976 4.51198C280.861 2.72491 279.745 0.937839 278.622 -0.762206C266.127 -19.5827 254.226 -28.0977 246.478 -39.3993C238.663 -50.848 234.209 -66.9784 229.374 -88.1911C227.945 -94.4264 226.473 -101.113 224.983 -108.07C222.258 -120.733 219.402 -134.221 216.437 -147.334C211.913 -167.02 207.073 -185.711 203.57 -199.957" stroke="#F29137" stroke-miterlimit="10"/>
<path d="M569.677 199.045C552.48 208.219 533.985 214.457 515.079 214.006C503.781 213.762 492.255 210.945 481.706 205.234C474.85 201.51 468.407 196.544 462.775 190.289C445.399 171.113 435.764 142.071 420.379 122.567C414.239 114.786 408.276 108.239 400.772 103.269C394.316 98.9646 386.963 96.0639 379.364 93.7754C368.807 90.6332 357.281 88.303 347.051 85.0091C341.419 83.1853 336.096 80.94 331.257 78.045C321.463 72.2302 314.362 65.1743 307.624 56.5124C297.89 44.0201 288.106 27.7069 277.349 10.2994C276.237 8.46675 275.122 6.67771 273.965 4.92398C261.576 -14.2057 250.636 -23.8983 244.081 -35.8442C237.347 -48.0056 234.212 -64.4045 230.074 -85.98C228.852 -92.3554 227.546 -99.1476 226.141 -106.182C223.592 -119.089 220.712 -132.775 217.521 -145.995C212.7 -165.9 207.079 -184.647 202.576 -198.68" stroke="#FDCFA5" stroke-miterlimit="10"/>
<path d="M567.295 203.1C550.165 212.033 531.742 217.939 512.938 217.287C501.731 216.93 490.294 214.039 479.865 208.347C473.05 204.627 466.684 199.716 461.046 193.542C443.656 174.605 433.707 146.082 418.812 126.393C412.769 118.402 407.033 111.496 399.599 106.179C393.205 101.617 385.836 98.4437 378.211 96.014C367.634 92.6861 355.993 90.3729 345.633 87.2691C339.916 85.5579 334.543 83.4766 329.565 80.8591C319.501 75.5119 311.958 69.1069 304.745 60.9984C294.286 49.2674 283.633 33.5468 272.742 15.8681C271.631 14.0334 270.478 12.234 269.363 10.4429C257.077 -8.954 247.145 -19.9068 241.698 -32.4285C236.089 -45.3841 234.229 -62.0179 230.82 -83.8629C229.803 -90.3354 228.662 -97.2335 227.345 -104.391C224.97 -117.498 222.066 -131.383 218.69 -144.748C213.534 -164.882 207.171 -183.676 201.67 -197.496" stroke="#FDCFA5" stroke-miterlimit="10"/>
<path d="M564.909 207.208C547.879 215.95 529.491 221.516 510.791 220.619C499.676 220.148 488.365 217.192 477.979 211.503C471.205 207.787 464.876 202.923 459.273 196.837C441.904 178.194 431.601 150.184 417.203 130.224C411.257 122.022 405.747 114.757 398.379 109.137C392.05 104.273 384.701 100.878 376.971 98.3338C366.333 94.8118 354.581 92.472 344.088 89.6027C338.286 88.0044 332.819 86.1229 327.746 83.7482C317.374 78.8618 309.426 73.1179 301.74 65.5647C290.552 54.641 278.998 39.4199 268.01 21.522C266.861 19.677 265.75 17.8402 264.639 16.0035C252.495 -3.65208 243.569 -15.8676 239.229 -28.9661C234.702 -42.6819 234.156 -59.5422 231.443 -81.752C230.633 -88.3652 229.619 -95.3774 228.426 -102.606C226.223 -115.913 223.297 -129.996 219.697 -143.513C214.206 -163.876 207.102 -182.718 200.603 -196.323" stroke="#FDCFA5" stroke-miterlimit="10"/>
<path d="M562.491 211.269C545.526 219.769 527.211 225.001 508.651 223.911C497.631 223.282 486.406 220.297 476.139 214.627C469.445 210.924 463.154 206.106 457.542 200.145C440.159 181.743 429.577 154.307 415.634 134.108C409.789 125.651 404.498 118.114 397.241 112.111C390.977 106.944 383.61 103.318 375.855 100.632C365.158 96.9156 353.333 94.5575 342.708 91.9231C336.858 90.4463 331.303 88.7214 326.133 86.59C315.489 82.2173 307.103 77.084 298.943 70.0872C287.069 59.9371 274.611 45.2599 263.449 27.1254C262.303 25.2345 261.193 23.3956 260.083 21.5568C248.045 1.58925 240.121 -11.8488 236.926 -25.5178C233.524 -40.0317 234.251 -57.1281 232.231 -79.6606C231.624 -86.3715 230.776 -93.4901 229.671 -100.841C227.644 -114.393 224.695 -128.677 220.903 -142.251C215.117 -162.835 207.233 -181.733 199.734 -195.08" stroke="#FFD3BD" stroke-miterlimit="10"/>
<path d="M560.11 215.337C543.207 223.638 524.968 228.492 506.51 227.199C495.543 226.447 484.447 223.353 474.258 217.738C467.605 214.039 461.351 209.269 455.735 203.389C438.376 185.239 427.48 158.327 413.988 137.935C408.277 129.275 403.175 121.368 395.983 115.061C389.781 109.634 382.395 105.778 374.618 102.906C363.862 98.9945 351.922 96.6537 341.206 94.2194C335.271 92.8561 329.623 91.332 324.358 89.4446C313.444 85.5434 304.616 81.0662 295.98 74.6714C283.378 65.3329 270.059 51.1664 258.761 32.8039C257.616 30.911 256.471 29.0181 255.403 27.1417C243.468 6.90647 236.587 -7.79187 234.463 -22.0924C232.18 -37.3618 234.181 -54.694 232.89 -77.5406C232.488 -84.3489 231.808 -91.6174 230.788 -99.048C228.934 -112.801 225.961 -127.283 221.947 -141.01C215.825 -161.822 207.202 -180.768 198.707 -193.899" stroke="#FFD3BD" stroke-miterlimit="10"/>
<path d="M557.723 219.451C540.924 227.517 522.716 232.071 504.362 230.533C493.487 229.666 482.519 226.506 472.375 220.849C465.764 217.155 459.547 212.432 453.965 206.642C436.592 188.735 425.382 162.348 412.382 141.726C406.769 132.854 401.854 124.577 394.766 117.973C388.63 112.242 381.264 108.163 373.419 105.184C362.604 101.077 350.592 98.7174 339.743 96.5193C333.758 95.3219 328.022 93.9551 322.621 92.3041C311.439 88.8754 302.209 85.0641 293.061 79.2203C279.732 70.6951 265.514 57.032 254.118 38.4488C252.935 36.5455 251.833 34.6149 250.727 32.7282C238.937 12.1884 233.057 -3.73821 232.038 -18.6202C230.916 -34.6831 234.15 -52.2608 233.551 -75.4313C233.355 -82.3814 232.837 -89.7128 231.908 -97.3107C230.23 -111.309 227.231 -125.948 223.032 -139.82C216.577 -160.862 207.214 -179.855 197.685 -192.778" stroke="#FDCFA5" stroke-miterlimit="10"/>
<path d="M555.342 223.523C538.605 231.388 520.473 235.563 502.221 233.821C491.438 232.839 480.558 229.606 470.534 223.968C464.002 220.287 457.823 215.611 452.233 209.946C434.885 192.291 423.361 166.43 410.812 145.613C405.334 136.536 400.606 127.889 393.626 120.943C387.555 114.907 380.171 110.596 372.301 107.475C361.427 103.171 349.303 100.785 338.326 98.7799C332.256 97.6967 326.466 96.5399 320.931 95.1258C309.476 92.2146 299.809 89.0186 290.188 83.7356C276.136 75.9818 261.056 62.8755 249.486 44.0545C248.304 42.1491 247.163 40.208 246.099 38.2836C234.412 17.474 229.61 0.332656 229.621 -15.1929C229.656 -32.0075 234.161 -49.8232 234.256 -73.3624C234.264 -80.4108 233.914 -87.8931 233.07 -95.571C231.564 -109.772 228.583 -124.647 224.159 -138.629C217.409 -159.893 207.268 -178.942 196.744 -191.648" stroke="#FDCFA5" stroke-miterlimit="10"/>
<path d="M552.956 227.595C536.285 235.216 518.223 239.098 500.115 237.117C489.426 235.976 478.669 232.72 468.688 227.085C462.194 223.453 456.053 218.824 450.499 213.205C433.134 195.838 421.339 170.47 409.243 149.414C403.865 140.08 399.36 131.113 392.446 123.861C386.44 117.519 379.034 113.02 371.104 109.703C360.209 105.211 347.975 102.799 336.865 101.031C330.748 100.07 324.841 98.9317 319.236 97.9473C307.488 95.8185 297.404 92.9759 287.312 88.2551C272.572 81.3271 256.557 68.7187 244.89 49.6763C243.711 47.7248 242.571 45.7816 241.511 43.8111C229.93 22.6875 226.166 4.32033 227.281 -11.7897C228.471 -29.3577 234.211 -47.4642 234.993 -71.2849C235.242 -78.4234 235.019 -86.0212 234.263 -93.8231C232.93 -108.227 229.925 -123.303 225.279 -137.438C218.195 -158.933 207.316 -178.029 195.798 -190.517" stroke="#FDCFA5" stroke-miterlimit="10"/>
<path d="M550.574 231.723C534.004 239.151 515.98 242.643 497.973 240.458C487.376 239.201 476.711 235.827 466.846 230.256C460.393 226.628 454.289 222.046 448.766 216.561C431.388 199.44 419.357 174.616 407.672 153.356C402.429 143.817 398.111 134.477 391.266 126.874C385.322 120.269 377.94 115.501 369.943 112.077C358.989 107.389 346.641 104.993 335.441 103.428C329.239 102.582 323.268 101.786 317.542 100.864C305.548 98.9476 294.999 97.0748 284.439 92.8737C268.974 86.7651 252.1 74.6725 240.298 55.3996C239.081 53.4376 237.984 51.4565 236.924 49.4838C225.446 28.0892 222.758 8.50128 224.943 -8.2913C227.288 -26.6148 234.259 -44.9692 235.734 -69.1604C236.19 -76.4416 236.093 -84.1554 235.46 -92.0294C234.302 -106.681 231.272 -121.915 226.442 -136.195C219.021 -157.877 207.447 -177.056 194.897 -189.334" stroke="#FDCFA5" stroke-miterlimit="10"/>
<path d="M548.151 235.809C531.646 242.991 513.692 246.188 495.79 243.755C485.284 242.383 474.707 238.934 464.923 233.374C458.549 229.759 452.483 225.225 446.955 219.823C429.602 202.956 417.258 178.664 406.022 157.208C400.918 147.419 396.783 137.75 390.042 129.847C384.163 122.936 376.763 117.935 368.741 114.367C357.729 109.481 345.308 107.068 333.976 105.741C327.728 105.018 321.626 104.417 315.805 103.742C303.539 102.347 292.554 101.094 281.521 97.4584C265.335 92.1274 247.597 80.6405 235.624 61.0851C234.408 59.1211 233.276 57.0855 232.221 55.0666C220.884 33.4097 219.232 12.5907 222.445 -4.84961C225.983 -23.9214 234.187 -42.5676 236.351 -67.085C237.01 -74.465 237.077 -82.2863 236.532 -90.2846C235.547 -105.139 232.496 -120.618 227.441 -135.008C219.726 -156.913 207.376 -176.147 193.834 -188.205" stroke="#FDCFA5" stroke-miterlimit="10"/>
<path d="M545.77 239.937C529.327 246.917 511.449 249.731 493.687 247.102C483.238 245.56 472.822 242.098 463.08 236.541C456.748 232.93 450.719 228.445 445.187 223.125C427.819 206.505 415.239 182.762 404.418 161.058C399.448 151.063 395.501 141.02 388.829 132.764C383.015 125.546 375.597 120.311 367.546 116.643C356.472 111.604 343.943 109.12 332.519 108.04C326.185 107.433 320.03 107.044 314.075 106.608C301.541 105.691 290.155 105.113 278.613 102.035C261.741 97.5359 243.069 86.5514 231 66.7738C229.787 64.7635 228.656 62.7258 227.601 60.7048C216.37 38.7326 215.789 16.7319 220.068 -1.34942C224.755 -21.1356 234.191 -40.0744 237.044 -64.919C237.91 -72.442 238.138 -80.3269 237.68 -88.4497C236.867 -103.508 233.793 -119.189 228.555 -133.725C220.507 -155.86 207.42 -175.141 192.887 -186.979" stroke="#FDCFA5" stroke-miterlimit="10"/>
<path d="M543.392 244.035C527.049 250.82 509.21 253.242 491.548 250.407C481.191 248.749 470.863 245.212 461.241 239.674C454.949 236.069 448.996 231.639 443.456 226.446C426.109 210.127 413.221 186.874 402.848 164.973C398.017 154.728 394.252 144.355 387.646 135.79C381.897 128.263 374.496 122.847 366.347 118.974C355.213 113.737 342.61 111.279 331.018 110.386C324.6 109.894 318.391 109.717 312.34 109.53C299.535 109.137 287.71 109.226 275.701 106.672C258.102 103.042 238.577 92.5343 226.373 72.5259C225.123 70.5052 224.03 68.4736 222.983 66.3622C211.854 44.1184 212.347 20.8894 217.652 2.15743C223.492 -18.3887 234.159 -37.6208 237.739 -62.7846C238.807 -70.4068 239.203 -78.4437 238.829 -86.6472C238.192 -101.953 235.091 -117.793 229.631 -132.482C221.251 -154.849 207.428 -174.175 191.904 -185.792" stroke="#FDCFA5" stroke-miterlimit="10"/>
<path d="M541.011 248.127C524.735 254.664 506.965 256.789 489.408 253.704C479.142 251.929 468.945 248.282 459.361 242.791C453.149 239.199 447.195 234.809 441.689 229.708C424.329 213.636 411.205 190.935 401.242 168.828C396.507 158.368 392.968 147.627 386.469 138.716C380.785 130.88 373.366 125.229 365.192 121.212C354 115.777 341.286 113.292 329.602 112.647C323.137 112.28 316.798 112.299 310.652 112.361C297.577 112.493 285.316 113.206 272.837 111.221C254.514 108.42 234.096 98.4247 221.757 78.1847C220.508 76.1617 219.38 74.0755 218.372 71.97C207.349 49.4093 208.873 24.9844 215.285 5.57205C222.31 -15.6841 234.207 -35.2109 238.44 -60.7562C239.71 -68.4781 240.232 -76.6317 239.985 -84.952C239.519 -100.463 236.399 -116.549 230.749 -131.297C222.075 -153.887 207.478 -173.269 190.964 -184.664" stroke="#FDCFA5" stroke-miterlimit="10"/>
<path d="M538.626 252.276C522.45 258.618 504.718 260.35 487.302 257.067C477.127 255.174 467.017 251.452 457.553 245.981C451.382 242.394 445.466 238.052 439.993 233.042C422.658 217.227 409.261 195.07 399.711 172.714C395.153 162.01 391.759 150.928 385.325 141.706C379.703 133.605 372.308 127.683 364.067 123.557C352.856 117.932 340.031 115.42 328.215 115.016C321.666 114.765 315.274 114.998 308.998 115.255C295.652 115.914 282.995 117.262 270.007 115.839C251.004 113.831 229.69 104.395 217.216 83.9231C215.971 81.8538 214.844 79.7652 213.801 77.6049C202.919 54.7793 205.477 29.1114 212.951 9.05292C221.127 -12.9675 234.289 -32.7371 239.17 -58.6206C240.684 -66.4783 241.332 -74.7488 241.172 -83.1945C240.878 -98.911 237.735 -115.2 231.863 -130.102C222.858 -152.926 207.527 -172.354 190.02 -183.482" stroke="#FDCFA5" stroke-miterlimit="10"/>
<path d="M536.252 256.376C520.141 262.469 502.479 263.902 485.167 260.368C475.087 258.315 465.062 254.562 455.679 249.102C449.549 245.52 443.705 241.279 438.227 236.352C420.878 220.788 407.25 199.142 398.106 176.623C393.682 165.712 390.474 154.254 384.145 144.729C378.588 136.318 371.171 130.205 362.909 125.889C351.639 120.065 338.701 117.571 326.795 117.372C320.2 117.246 313.72 117.64 307.306 118.183C293.693 119.325 280.598 121.345 267.137 120.538C247.413 119.362 225.245 110.451 212.636 89.7469C211.391 87.6754 210.23 85.5321 209.226 83.3778C198.45 60.235 202.071 33.4191 210.574 12.6612C219.896 -10.0801 234.289 -30.1893 239.895 -56.3942C241.611 -64.3516 242.423 -72.7307 242.351 -81.3018C242.231 -97.2676 239.062 -113.716 233.008 -128.764C223.671 -151.819 207.605 -171.293 189.111 -182.198" stroke="#FDCFA5" stroke-miterlimit="10"/>
<path d="M533.824 260.534C517.776 266.422 500.191 267.468 482.98 263.726C472.992 261.555 463.093 257.735 453.751 252.279C447.659 248.746 441.856 244.509 436.412 239.674C419.089 224.368 405.225 203.278 396.455 180.5C392.17 169.336 389.142 157.588 382.884 147.663C377.393 138.941 369.957 132.592 361.633 128.122C350.304 122.099 337.295 119.586 325.223 119.577C318.543 119.567 312.01 120.175 305.502 120.969C291.654 122.692 278.089 125.288 264.16 125.055C243.717 124.669 220.654 116.319 207.912 95.3828C206.629 93.3008 205.51 91.1191 204.506 88.9626C193.833 65.5456 198.525 37.4898 208.089 16.0828C218.59 -7.32913 234.214 -27.7796 240.471 -54.3682C242.389 -62.4259 243.33 -70.9667 243.38 -79.6109C243.432 -95.7829 240.239 -112.435 233.964 -127.638C224.335 -150.918 207.498 -170.446 188.016 -181.127" stroke="#FDCFA5" stroke-miterlimit="10"/>
<path d="M531.447 264.646C506.227 273.553 477.082 270.19 451.913 255.416C426.744 240.642 405.892 214.577 394.929 184.392C390.782 172.974 387.936 160.892 381.744 150.654C368.951 129.412 345.001 121.537 323.842 121.942C302.721 122.355 282.498 129.282 261.335 129.731C240.211 130.188 216.257 122.358 203.381 101.188C188.397 76.4908 194.152 43.761 205.76 19.6156C217.409 -4.56571 234.255 -25.2696 241.236 -52.1818C247.325 -75.6777 245.109 -102.832 235.149 -126.345C225.189 -149.859 207.618 -169.432 187.15 -179.889" stroke="#FF7E07" stroke-miterlimit="10"/>
<path d="M524.584 266.092C499.581 274.672 470.849 271.024 446.111 256.111C421.373 241.198 400.805 215.286 390.232 185.215C386.112 173.491 383.577 160.937 377.649 150.403C365.62 129.027 342.546 120.818 322.136 120.482C301.764 120.155 282.034 126.126 261.178 126.01C240.047 125.924 215.973 118.539 202.693 97.7045C187.337 73.4733 192.111 40.6403 203.377 16.1087C214.642 -8.42279 231.861 -29.2541 239.315 -55.4331C245.754 -78.075 243.846 -104.215 234.692 -126.956C225.539 -149.697 209.053 -168.922 189.397 -179.464" stroke="#FF7E07" stroke-miterlimit="10"/>
<path d="M517.69 267.493C492.947 275.705 464.585 271.808 440.237 256.793C415.889 241.778 395.65 215.939 385.504 185.994C381.414 173.918 379.221 160.986 373.555 150.155C362.324 128.698 340.089 120.1 320.466 119.026C300.808 117.9 281.567 122.954 261.014 122.314C239.88 121.636 215.641 114.78 201.963 94.2408C186.195 70.5172 190.073 37.5105 200.914 12.6645C211.755 -12.1815 229.347 -33.1849 237.309 -58.5709C244.131 -80.2985 242.499 -105.514 234.15 -127.476C225.762 -149.446 210.397 -168.31 191.552 -178.938" stroke="#FF7E07" stroke-miterlimit="10"/>
<path d="M510.834 268.949C486.314 276.783 458.365 272.598 434.404 257.525C410.443 242.451 390.576 216.649 380.818 186.822C376.759 174.392 374.907 161.078 369.469 149.895C358.996 128.348 337.673 119.418 318.762 117.54C299.851 115.662 281.1 119.793 260.817 118.571C239.72 117.307 215.28 110.975 201.245 90.7421C185.07 67.4847 188.051 34.3477 198.467 9.18459C208.883 -15.9785 226.883 -37.1028 235.356 -61.781C242.479 -82.5607 241.237 -106.821 233.656 -128.052C226.072 -149.238 211.783 -167.703 193.751 -178.463" stroke="#FF7E07" stroke-miterlimit="10"/>
<path d="M503.932 270.416C479.671 277.923 452.059 273.432 428.531 258.218C405.003 243.004 385.466 217.276 376.093 187.612C372.065 174.825 370.549 161.173 365.342 149.59C355.622 127.995 335.178 118.634 317.018 115.954C298.858 113.274 280.596 116.475 260.579 114.713C239.441 112.886 214.925 107.019 200.454 87.1219C183.875 64.3344 185.957 31.1117 195.953 5.58425C205.987 -19.9348 224.307 -41.1083 233.29 -65.0744C240.754 -84.9365 239.825 -108.252 233.045 -128.695C226.265 -149.137 213.051 -167.2 195.831 -178.093" stroke="#FFA14A" stroke-miterlimit="10"/>
<path d="M497.089 271.837C473.053 278.961 445.853 274.224 422.755 258.914C399.657 243.605 380.45 217.951 371.461 188.452C367.464 175.305 366.25 161.258 361.304 149.371C352.335 127.729 332.77 117.932 315.356 114.49C297.942 111.047 280.138 113.213 260.424 110.96C239.288 108.531 214.655 103.169 199.789 83.6197C182.846 61.3146 183.96 27.9444 193.609 2.11247C203.219 -23.7279 221.903 -45.0333 231.431 -68.2741C239.197 -87.2208 238.613 -109.532 232.632 -129.18C226.651 -148.828 214.513 -166.533 198.139 -177.507" stroke="#FFA14A" stroke-miterlimit="10"/>
<path d="M490.195 273.309C466.423 280.056 439.597 275.063 416.895 259.603C394.192 244.143 375.393 218.582 366.749 189.24C362.784 175.731 361.904 161.341 357.227 149.057C348.966 127.404 330.354 117.185 313.651 112.921C296.985 108.665 279.671 109.887 260.224 107.087C239.096 104.006 214.342 99.2431 199.049 79.9913C181.707 58.1643 181.932 24.6634 191.161 -1.53709C200.39 -27.7375 219.351 -49.1024 229.422 -71.6132C237.446 -89.6015 237.29 -110.974 232.068 -129.832C226.845 -148.689 215.814 -165.98 200.25 -177.089" stroke="#FFA14A" stroke-miterlimit="10"/>
<path d="M483.338 274.808C459.777 281.154 433.344 275.915 411.018 260.369C388.691 244.823 370.288 219.345 361.982 190.203C358.045 176.35 357.46 161.627 353.043 149.006C345.479 127.419 327.775 116.689 311.841 111.663C295.87 106.63 279.039 106.808 259.885 103.467C238.747 99.7768 213.825 95.5211 198.167 76.6572C180.453 55.3497 179.749 21.8048 188.565 -4.72542C197.38 -31.2557 216.666 -52.5918 227.291 -74.4246C235.577 -91.4212 235.806 -111.782 231.378 -129.854C226.945 -147.881 217.015 -164.777 202.207 -175.971" stroke="#FFA14A" stroke-miterlimit="10"/>
<path d="M476.441 276.256C453.122 282.25 427.045 276.712 405.129 261.091C383.213 245.47 365.166 220.071 357.196 191.137C353.288 176.942 353.032 161.942 348.844 148.887C341.936 127.36 325.173 116.127 309.969 110.33C294.73 104.48 278.243 104.92 259.472 99.8078C238.429 94.0966 213.267 91.7693 197.169 73.2821C179.081 52.5007 177.453 18.8746 185.892 -7.92623C194.331 -34.727 213.872 -56.1371 225.12 -77.1763C233.672 -93.2188 234.285 -112.559 230.642 -129.749C227.002 -146.984 218.124 -163.398 204.109 -174.712" stroke="#FFA14A" stroke-miterlimit="10"/>
<path d="M469.583 277.763C446.471 283.352 420.746 277.557 399.244 261.816C377.701 246.111 360.047 220.801 352.41 192.122C348.529 177.583 348.567 162.251 344.639 148.86C338.387 127.396 322.598 115.712 308.091 109.041C293.58 102.415 277.491 101.879 259.051 96.1834C238.007 89.7203 212.703 88.0524 196.203 69.9523C177.705 49.6911 175.193 15.993 183.218 -11.0872C191.242 -38.1673 211.073 -59.5971 222.908 -79.8938C231.684 -94.9417 232.756 -113.24 229.865 -129.644C226.974 -146.047 219.191 -162.06 205.966 -173.45" stroke="#FFA14A" stroke-miterlimit="10"/>
<path d="M462.687 279.269C439.783 284.449 414.448 278.407 393.318 262.582C372.189 246.756 354.924 221.582 347.585 193.104C343.77 178.229 344.06 162.601 340.435 148.79C334.834 127.433 319.988 115.196 306.208 107.748C292.427 100.299 276.918 97.3849 258.624 92.5473C237.383 86.9108 212.13 84.3693 195.195 66.604C176.325 46.8737 172.855 13.0869 180.504 -14.2647C188.153 -41.6163 208.196 -63.083 220.696 -82.6634C229.657 -96.7216 231.191 -114.021 229.085 -129.581C226.98 -145.141 220.253 -160.761 207.816 -172.226" stroke="#FFA14A" stroke-miterlimit="10"/>
<path d="M455.834 280.734C433.175 285.513 408.195 279.168 387.433 263.305C366.672 247.441 349.803 222.312 342.798 194.046C339.012 178.826 339.553 162.902 336.231 148.67C331.245 127.367 317.412 114.638 304.32 106.401C291.266 98.1721 276.236 94.1976 258.227 88.8577C236.979 82.5587 211.593 80.5874 194.253 63.2589C175.017 44.0167 170.621 10.2428 177.86 -17.4341C185.1 -45.111 205.39 -66.5598 218.511 -85.3835C227.661 -98.4937 229.648 -114.698 228.327 -129.412C227.006 -144.126 221.329 -159.304 209.682 -170.892" stroke="#FFA14A" stroke-miterlimit="10"/>
<path d="M448.931 282.252C426.478 286.667 401.891 280.026 381.543 264.04C361.195 248.055 344.719 223.014 338.008 194.996C334.287 179.437 335.079 163.214 332.019 148.595C327.603 127.429 314.785 114.159 302.46 105.101C290.134 96.0423 275.546 90.995 257.825 85.1507C236.536 78.1324 211.052 76.7878 193.315 59.8509C173.71 41.1433 168.397 7.28856 175.266 -20.7085C182.134 -48.7056 202.555 -70.1639 216.413 -88.2506C225.671 -100.382 228.231 -115.555 227.654 -129.43C227.078 -143.304 222.491 -158.079 211.63 -169.744" stroke="#FFA14A" stroke-miterlimit="10"/>
<path d="M442.08 283.72C419.873 287.731 395.637 280.831 375.66 264.761C355.684 248.692 339.637 223.751 333.259 195.946C329.57 179.994 330.609 163.519 327.851 148.476C324.007 127.402 312.202 113.591 300.6 103.746C288.961 93.8929 274.854 87.7318 257.415 81.4275C236.12 73.7423 210.541 72.9809 192.331 56.4218C172.357 38.2525 166.13 4.32024 172.586 -23.9577C179.043 -52.2357 199.636 -73.7389 214.19 -91.0471C223.596 -102.232 226.646 -116.295 226.854 -129.363C227.062 -142.431 223.521 -156.763 213.444 -168.505" stroke="#FFA14A" stroke-miterlimit="10"/>
<path d="M435.187 285.244C413.188 288.841 389.303 281.681 369.735 265.536C350.167 249.39 334.515 224.496 328.425 196.988C324.802 180.696 326.016 163.905 323.632 148.5C320.358 127.518 309.602 113.172 298.688 102.483C287.775 91.7948 274.109 84.5535 256.951 77.7877C235.616 69.3789 209.94 69.2488 191.333 53.0862C170.996 35.4114 163.812 1.48554 169.898 -27.1115C175.984 -55.7085 196.674 -77.2738 211.958 -93.7926C221.438 -104.045 225.054 -117.023 226.038 -129.19C227.026 -141.404 224.529 -155.292 215.242 -167.203" stroke="#FFA14A" stroke-miterlimit="10"/>
<path d="M428.331 286.777C406.574 290.013 383.043 282.546 363.849 266.27C344.655 249.994 329.465 225.255 323.634 197.946C320.076 181.314 321.498 164.259 319.418 148.382C316.673 127.53 306.964 112.646 296.775 101.12C286.586 89.5929 273.36 81.2677 256.485 74.0388C235.11 64.9043 209.341 65.3617 190.298 49.6349C169.595 32.503 161.499 -1.49925 167.213 -30.3698C172.889 -59.2489 193.677 -80.9224 209.762 -96.5862C219.356 -105.941 223.493 -117.746 225.258 -129.102C227.023 -140.459 225.572 -153.947 217.067 -165.936" stroke="#FFA14A" stroke-miterlimit="10"/>
<path d="M421.438 288.255C399.889 291.075 376.746 283.355 357.96 267.002C339.174 250.65 324.378 225.958 318.837 198.902C315.349 181.881 316.941 164.554 315.2 148.257C312.985 127.49 304.321 112.066 294.853 99.7441C285.384 87.4224 272.603 77.917 256.006 70.2696C234.635 60.3694 208.728 61.5004 189.291 46.1736C168.227 29.5405 159.22 -4.49181 164.524 -33.6453C169.831 -62.845 190.68 -84.6358 207.525 -99.4507C217.157 -107.922 221.928 -118.524 224.435 -129.076C226.938 -139.581 226.564 -152.614 218.879 -164.72" stroke="#FFA14A" stroke-miterlimit="10"/>
<path d="M414.591 289.792C393.287 292.203 370.494 284.22 352.077 267.783C333.661 251.346 319.329 226.765 314.045 199.91C310.622 182.547 312.387 164.902 310.98 148.23C309.295 127.548 301.712 111.591 292.962 98.4721C284.215 85.3066 271.91 74.7183 255.557 66.5965C234.184 55.9746 208.145 57.7353 188.277 42.8023C166.849 26.717 156.931 -7.34326 161.833 -36.8714C166.735 -66.3995 187.648 -88.3532 205.321 -102.206C215.028 -109.782 220.358 -119.241 223.636 -128.884C226.914 -138.526 227.58 -151.157 220.674 -163.342" stroke="#FFA14A" stroke-miterlimit="10"/>
<path d="M407.741 291.339C386.645 293.33 364.241 285.092 346.197 268.523C328.153 251.955 314.248 227.476 309.25 200.924C305.897 183.17 307.79 165.289 306.798 148.165C305.601 127.606 299.096 111.114 291.067 97.1476C283.038 83.1812 271.177 71.405 255.106 62.8155C233.699 51.4148 207.562 53.8624 187.303 39.3332C165.517 23.7512 154.654 -10.3458 159.185 -40.1493C163.716 -69.9527 184.623 -92.1802 203.117 -105.023C212.827 -111.763 218.784 -119.967 222.838 -128.791C226.854 -137.623 228.593 -149.797 222.464 -162.061" stroke="#FFA14A" stroke-miterlimit="10"/>
<path d="M400.851 292.828C379.96 294.445 357.95 285.858 340.271 269.251C322.631 252.652 309.158 228.183 304.412 201.879C301.124 183.781 303.152 165.57 302.531 148.078C301.824 127.596 296.433 110.575 289.085 95.75C281.738 80.9251 270.355 68.0119 254.562 58.9997C233.159 46.8264 206.929 49.9169 186.202 35.8227C164.058 20.7463 152.289 -13.3778 156.45 -43.4566C160.574 -73.5439 181.478 -96.0921 200.829 -107.913C210.583 -113.853 217.165 -120.797 221.951 -128.761C226.738 -136.726 229.51 -148.449 224.16 -160.84" stroke="#FFA14A" stroke-miterlimit="10"/>
<path d="M394.008 294.379C373.326 295.574 351.665 286.722 334.392 270.038C317.123 253.307 304.114 228.951 299.619 202.896C296.438 184.414 298.521 165.903 298.31 148.003C298.054 127.589 293.775 110.038 287.142 94.4063C280.509 78.775 269.607 64.6746 254.091 55.2384C232.696 42.2438 206.329 46.0639 185.213 32.3774C162.713 17.8089 150.041 -16.3413 153.796 -46.7042C157.551 -77.0671 178.421 -100.038 198.653 -110.686C208.45 -115.823 215.615 -121.465 221.17 -128.56C226.725 -135.654 230.531 -146.973 225.955 -159.444" stroke="#FFA14A" stroke-miterlimit="10"/>
<path d="M387.12 295.928C366.684 296.707 345.372 287.589 328.509 270.781C311.645 253.974 299.06 229.721 294.82 203.871C291.704 185.042 293.922 166.199 294.079 147.928C294.273 127.583 291.099 109.545 285.183 93.0576C279.267 76.5703 268.845 61.2787 253.565 51.455C232.175 37.6831 205.679 42.1424 184.136 28.9033C161.281 14.8447 147.705 -19.2845 151.057 -49.9787C154.41 -80.6729 175.248 -104.115 196.356 -113.54C206.2 -117.918 213.945 -122.254 220.267 -128.476C226.552 -134.707 231.426 -145.611 227.621 -158.163" stroke="#FFA14A" stroke-miterlimit="10"/>
<path d="M380.278 297.433C360.088 297.796 339.125 288.411 322.63 271.517C306.135 254.623 294.052 230.445 290.021 204.885C287.011 185.669 289.247 166.516 289.887 147.85C290.531 127.574 288.463 109.001 283.259 91.7012C278.054 74.4014 268.074 57.906 253.071 47.6555C231.728 33.0659 205.06 38.2514 183.132 25.4235C159.924 11.877 145.45 -22.277 148.435 -53.2482C151.423 -84.266 172.233 -108.227 194.207 -116.333C204.099 -119.996 212.455 -122.921 219.507 -128.323C226.559 -133.725 232.493 -144.121 229.425 -156.81" stroke="#FFA14A" stroke-miterlimit="10"/>
<path d="M373.395 298.991C353.41 298.974 332.838 289.283 316.748 272.311C300.658 255.339 289.002 231.218 285.222 205.908C282.314 186.352 284.609 166.847 285.656 147.768C286.751 127.514 285.821 108.457 281.327 90.3417C276.836 72.1793 267.334 54.4839 252.572 43.7963C231.239 28.3775 204.48 34.2627 182.128 21.8858C158.569 8.85306 143.163 -25.3347 145.784 -56.6313C148.405 -87.9279 169.196 -112.551 191.991 -119.296C201.932 -122.242 210.861 -123.806 218.672 -128.284C226.487 -132.809 233.446 -142.798 231.146 -155.57" stroke="#FFA14A" stroke-miterlimit="10"/>
<path d="M366.551 300.556C346.812 300.12 326.589 290.16 310.869 273.055C295.146 255.997 283.949 231.989 280.422 206.887C277.62 186.943 279.932 167.125 281.42 147.688C282.962 127.503 283.129 107.954 279.35 88.9273C275.568 69.9468 266.543 51.0484 252.02 39.9229C230.739 23.6349 203.809 30.2513 181.034 18.3278C157.126 5.81164 140.823 -28.3519 143.045 -59.9812C145.266 -91.6105 166.034 -116.849 189.679 -122.127C199.669 -124.353 209.166 -124.506 217.741 -128.151C226.316 -131.795 234.295 -141.329 232.768 -154.277" stroke="#FFA14A" stroke-miterlimit="10"/>
<path d="M359.667 302.073C340.137 301.208 320.263 290.979 304.947 273.795C289.631 256.612 278.893 232.718 275.577 207.861C272.878 187.574 275.214 167.348 277.141 147.551C279.094 127.38 280.431 107.353 277.321 87.496C274.212 67.6388 265.701 47.5415 251.414 36.0232C230.181 18.91 203.087 26.2138 179.929 14.754C155.677 2.70957 138.481 -31.4295 140.3 -63.3461C142.118 -95.2627 162.955 -121.337 187.405 -125.105C197.483 -126.648 207.548 -125.385 216.844 -128.156C226.139 -130.926 235.175 -140.043 234.413 -153.075" stroke="#FFA14A" stroke-miterlimit="10"/>
<path d="M352.838 303.641C333.551 302.401 314.031 291.807 299.077 274.584C284.127 257.314 273.888 233.496 270.78 208.933C268.186 188.256 270.54 167.716 272.941 147.567C275.342 127.419 277.77 106.896 275.366 86.2146C272.961 65.5337 264.966 44.1872 250.878 32.2668C229.697 14.2795 202.433 22.3665 178.859 11.3172C154.256 -0.159439 136.176 -34.3659 137.631 -66.5605C139.085 -98.7552 159.952 -125.675 185.162 -127.843C195.369 -128.739 205.918 -125.98 215.969 -127.866C226.021 -129.752 236.073 -138.458 236.074 -151.574" stroke="#FFA14A" stroke-miterlimit="10"/>
</g>
<defs>
<clipPath id="clip0_201_38">
<rect width="300" height="300" fill="white"/>
</clipPath>
</defs>
</svg>
